<?xml version="1.0" encoding="utf-8" ?><svg xmlns="http://www.w3.org/2000/svg" xmlns:xlink="http://www.w3.org/1999/xlink" width="1024" height="1024" viewBox="0 0 1024 1024"><path fill="white" d="M0 0L1024 0L1024 1024L0 1024L0 0Z"/><path fill="#2F4F3E" d="M464.868 169.766C475.06 172.384 484.34 173.649 494.628 176.994C528.947 187.997 563.329 205.325 589.523 230.245C614.666 254.165 626.443 283.297 629.273 317.286C629.755 323.079 627.892 337.909 634.987 339.429C641.633 340.853 646.189 336.825 650.439 332.257C646.121 342.041 644.238 344.342 633.568 346.756C638.676 355.55 640.091 357.324 646.869 364.17C654.69 372.071 680.828 384.385 676.472 397.135C672.653 408.314 660.66 410.108 653.113 421.232C662.489 431.732 671.774 437.836 661.224 452.206C668.962 462.139 668.372 470.799 657.806 478.562C657.008 479.14 656.191 479.691 655.357 480.215C659.538 491.719 665.883 504.492 660.182 516.46C649.551 538.776 622.973 532.864 603.486 529.936C549.978 521.895 517.463 572.04 502.461 616.074C499.627 624.392 497.206 633.331 494.853 641.996L493.909 642.083C493.909 636.9 493.065 630.788 493.111 624.994C493.324 597.718 496.42 573.009 510.264 548.989C526.268 521.222 558.895 512.063 589.028 516.719C603.834 519.006 621.465 525.908 637.083 522.552C641.466 521.61 646.195 518.359 648.32 514.29C655.647 500.262 645.641 485.49 642.093 472.456L641.902 471.738C648.838 470.14 653.592 469.094 657.923 463.022C656.496 459.66 655.536 458.351 653.176 455.682C647.058 455.453 643.181 455.317 637.026 454.669C635.231 454.481 633.252 454.303 636.195 453.145C643.741 450.728 652.125 446.792 655.36 439.102C651.907 431.91 642.634 424.788 644.68 416.028C646.613 407.754 668.032 404.589 664.89 394.221C662.798 389.983 645.957 381.142 641.379 377.663C634.669 372.564 627.897 366.637 623.609 359.385C617.276 348.676 618.004 334.494 617.189 322.343C614.418 281.052 592.806 246.761 559.851 222.404C584.081 259.313 590.726 292.564 582.975 336.042C565.268 435.37 463.286 502.647 474.57 608.245C476.883 629.894 484.079 651.562 495.715 669.95C510.739 693.708 529.326 705.469 552.643 719.492L551.139 720.887C499.807 705.709 454.983 670.052 439.801 617.116C426.666 571.317 443.93 529.97 466.74 490.81C475.651 475.511 486.783 461.133 495.386 445.573C498.459 441.774 504.84 430.166 507.307 425.697C543.321 369.452 577.397 297.492 544.654 231.698C528.981 200.203 497.444 181.172 465.001 170.93L464.868 169.766Z"/><path fill="#595753" d="M637.026 454.669C635.231 454.481 633.252 454.303 636.195 453.145C636.492 453.654 636.75 454.149 637.026 454.669Z"/><path fill="#C8A96A" d="M337.935 374.226C353.298 374.298 368.939 374.005 384.42 373.979C410.08 373.934 430.405 378.112 449.224 396.684C463.348 410.622 469.527 428.349 469.573 448.092C469.62 467.878 462.161 484.854 448.148 498.811C425.925 519.796 401.841 520.578 373.571 520.496L337.988 520.29L337.935 374.226Z"/><path fill="white" d="M348.225 383L377.177 382.91C401.674 382.887 421.514 383.587 441.047 401.362C453.341 412.549 459.136 429.908 459.291 446.26C459.475 465.579 453.915 479.041 440.651 492.798C421.662 510.693 399.72 511.629 375.473 511.505L348.04 511.339C347.751 469.721 347.279 424.41 348.225 383Z"/><path fill="#C8A96A" d="M397.735 205.118C413.013 211.204 431.021 218.981 445.63 226.218C471.769 239.169 496.803 262.457 508.444 289.263C516.428 307.684 520.129 330.78 512.155 349.771C509.352 356.446 505.668 363.82 502.056 370.148C504.767 382.351 506.48 390.108 506.994 402.859C507.169 407.184 506.688 422.584 507.307 425.697C504.84 430.166 498.459 441.774 495.386 445.573C495.406 442.077 497.073 433.324 497.678 429.373C498.686 422.632 499.287 415.837 499.478 409.024C500.974 357.411 484.03 317.11 454.999 275.515L454.191 275.903C472.187 308.28 482.7 339.015 486.953 375.919C478.017 370.717 468.998 365.501 460.116 360.282C434.969 345.507 418.055 323.784 410.518 295.51C406.231 279.429 407.078 266.122 405.964 249.866C404.898 234.69 402.138 219.68 397.735 205.118Z"/><path fill="#DAC6B3" d="M454.191 275.903L453.636 275.112C453.237 274.563 452.382 273.657 452.723 272.918C453.414 272.681 454.709 275.082 454.999 275.515L454.191 275.903Z"/><defs><linearGradient id="gradient_0" gradientUnits="userSpaceOnUse" x1="605.68176" y1="512.96234" x2="776.51001" y2="628.38049"><stop offset="0" stop-color="#BB9B6E"/><stop offset="1" stop-color="#E2BA85"/></linearGradient></defs><path fill="url(#gradient_0)" d="M754.061 285.986C754.958 293.584 754.522 311.58 754.51 319.958L754.217 391.465L754.47 546.032L754.473 588.04C754.468 605.5 754.554 623.156 751.376 640.393C746.183 668.557 733.225 697.8 715.523 720.253C685.062 758.889 642.967 784.436 593.795 790.217C587.438 790.965 551.527 792.838 548.891 790.754C548.403 790.368 548.273 789.603 548.351 789.006C548.432 788.388 548.771 787.553 549.353 787.254C551.087 786.362 559.65 786.83 562.17 786.748C570.109 786.555 578.026 785.846 585.873 784.626C647.334 775.034 701.852 735.66 726.495 678.107C734.203 660.474 739.285 641.807 741.578 622.7C743.403 607.465 743.021 592.528 743.038 577.214L743.046 518.373L743.233 356.957C743.303 338.607 742.872 319.927 743.155 301.629C744.337 303.489 743.279 330.703 743.956 335.669C744.497 327.719 743.771 320.209 744.003 312.279C744.273 303.058 752.694 305.84 753.18 298.211L753.211 297.646C754.801 301.224 752.189 327.44 753.745 331.388C754.261 317.376 753.122 299.815 754.014 286.618L754.061 285.986Z"/><defs><linearGradient id="gradient_1" gradientUnits="userSpaceOnUse" x1="262.25851" y1="679.52924" x2="441.41156" y2="486.06281"><stop offset="0" stop-color="#A08157"/><stop offset="1" stop-color="#D4B07D"/></linearGradient></defs><path fill="url(#gradient_1)" d="M270.077 392.091L270.155 391.448C271.552 378.902 270.323 361.12 270.641 348.194C270.773 342.835 270.197 337.289 270.757 331.867C270.792 333.856 270.437 333.992 271.416 335.237L271.091 335.408L271.169 335.418C272.003 334.235 272.422 333.509 273.13 332.269C277.877 331.801 276.667 342.639 280.484 343.241L281.354 342.855C281.779 351.476 280.741 361.079 281.352 369.295C282.294 381.972 280.536 398.522 282.073 410.509C282.328 413.311 282.125 420.114 282.116 423.232L282.073 449.258L282.123 556.499C282.08 580.665 280.83 611.44 284.487 634.642C287.132 651.299 292.32 667.451 299.869 682.534C325.836 735.465 373.654 773.138 431.907 783.581C438.911 784.875 445.979 785.798 453.081 786.347C456.508 786.598 473.601 786.781 475.184 787.322C475.949 789.158 475.609 790.193 474.569 791.752C471.271 793.265 431.064 790.701 424.906 789.812C386.582 783.979 351.222 765.757 324.23 737.932C294.732 707.674 276.072 668.508 271.156 626.537C269.542 612.393 269.858 596.327 269.866 581.959L269.91 524.837C269.929 480.881 269.527 435.965 270.077 392.091Z"/><path fill="#C8A96A" d="M270.077 392.091C269.804 369.595 269.899 346.667 269.94 324.159C269.967 309.77 269.428 290.748 270.703 276.779C274.735 233.844 293.386 193.596 323.537 162.765C358.012 127.509 405.393 108.07 454.303 109.505C460.704 109.693 468.987 108.805 475.198 109.649C476.2 110.723 476.19 112.38 475.73 113.729C469.341 115.207 457.783 113.837 450.778 114.668C444.807 115.377 439.252 116.107 433.323 117.097C350 131.009 282.94 206.496 282.324 291.594C282.264 299.974 282.127 308.324 282.129 316.714L282.294 373.618C282.328 381.959 282.88 402.755 282.073 410.509C280.536 398.522 282.294 381.972 281.352 369.295C280.741 361.079 281.779 351.476 281.354 342.855L280.484 343.241C276.667 342.639 277.877 331.801 273.13 332.269C272.422 333.509 272.003 334.235 271.169 335.418L271.091 335.408L271.416 335.237C270.437 333.992 270.792 333.856 270.757 331.867C270.197 337.289 270.773 342.835 270.641 348.194C270.323 361.12 271.552 378.902 270.155 391.448L270.077 392.091Z"/><path fill="#A2845A" d="M743.155 301.629C743.032 286.443 742.427 275.646 739.43 260.651C724.333 187.16 665.944 130.308 592.077 117.177C583.289 115.674 574.411 114.752 565.501 114.417C561.291 114.247 551.667 115.005 548.428 112.843C547.186 109.763 550.562 109.421 552.772 109.449C565.9 109.617 579.366 108.916 592.425 110.289C632.263 114.452 669.499 132.047 698.01 160.18C732.818 194.078 753.436 236.951 754.061 285.986L754.014 286.618C753.122 299.815 754.261 317.376 753.745 331.388C752.189 327.44 754.801 301.224 753.211 297.646L753.18 298.211C752.694 305.84 744.273 303.058 744.003 312.279C743.771 320.209 744.497 327.719 743.956 335.669C743.279 330.703 744.337 303.489 743.155 301.629Z"/><path fill="#C8A96A" d="M724.576 285.988C725.487 294.365 724.955 314.325 724.927 323.294L724.751 397.007L725.093 556.158C724.902 582.787 726.75 611.453 722.179 637.5C717.944 661.639 705.496 689.385 690.074 708.523C662.217 743.095 621.77 765.188 577.626 769.944C567.14 771.013 559.002 770.188 549.825 770.796C549.595 770.771 547.891 770.788 548.088 770.145C548.903 769.41 551.841 769.541 552.909 769.552C557.683 769.963 564.683 768.873 569.531 768.34C650.04 759.481 714.342 691.913 719.206 610.951C719.803 601.007 719.722 591.206 719.694 581.312L719.571 539.336L719.789 420.7L719.746 379.777C719.742 373.893 719.445 363.527 719.954 358.033L719.997 357.606C721.698 353.717 719.785 319.985 720.688 312.364L722.218 312.673C723.638 311.726 723.47 311.476 723.913 309.685C724.546 321.778 723.945 337.757 724.085 350.377C724.557 345 724.242 337.599 724.364 332.07C724.699 316.873 724.054 301.127 724.576 285.988Z"/><path fill="#DAC6B3" d="M549.825 770.796C549.595 770.771 547.891 770.788 548.088 770.145C548.903 769.41 551.841 769.541 552.909 769.552C551.804 770.038 550.97 770.438 549.825 770.796Z"/><path fill="#2F4F3E" d="M720.992 853.073C734.768 852.993 758.431 850.315 768.897 861.182C780.474 873.201 780.63 890.954 769.073 903.342C759.906 911.861 750.173 911.635 738.539 911.615L720.999 911.546C721.36 892.464 721.117 872.174 720.992 853.073Z"/><path fill="white" d="M727.979 859.168C735.207 858.9 744.188 858.523 751.253 859.36C770.618 861.654 776.386 886.4 763.703 899.695C753.799 908.03 740.225 906.091 728.007 906.004C727.684 893.334 727.373 871.527 727.979 859.168Z"/><path fill="#2F4F3E" d="M463.282 852.491C479.802 849.151 495.903 859.829 499.255 876.346C502.606 892.864 491.939 908.973 475.424 912.335C458.893 915.701 442.766 905.021 439.411 888.488C436.057 871.955 446.747 855.835 463.282 852.491Z"/><path fill="white" d="M466.835 858.479C480.14 856.997 492.103 866.642 493.477 879.958C494.851 893.275 485.109 905.159 471.782 906.425C458.607 907.676 446.887 898.07 445.529 884.906C444.171 871.741 453.682 859.944 466.835 858.479Z"/><path fill="#2F4F3E" d="M52.7544 853.243L70.477 853.04C90.2384 853.009 107.111 859.439 107.55 883.168C107.719 892.276 104.362 898.045 97.9852 904.308C85.6072 913.998 67.021 911.621 51.4189 911.57L51.4543 873.573C51.4581 868.58 51.1843 858.43 51.6497 853.783L52.7544 853.243Z"/><path fill="white" d="M57.9976 858.999C65.076 858.97 72.4696 858.681 79.4992 859.198C99.8173 860.691 106.84 885.31 94.0253 899.344C84.1505 907.789 70.5826 905.676 58.0863 905.553L57.9976 858.999Z"/><defs><linearGradient id="gradient_2" gradientUnits="userSpaceOnUse" x1="274.91415" y1="634.87598" x2="444.72742" y2="494.73221"><stop offset="0" stop-color="#9F7F53"/><stop offset="1" stop-color="#D8B381"/></linearGradient></defs><path fill="url(#gradient_2)" d="M299.676 373.367C301.499 371.172 298.33 330.457 302.716 323.144L303.336 323.439C303.85 327.539 303.376 333.215 304.469 336.678C304.938 360.147 304.636 384.542 304.666 408.073C304.875 444.216 304.893 480.359 304.72 516.502L304.585 571.689C304.554 594.874 303.51 613.757 308.878 636.532C316.382 668.789 332.959 698.226 356.652 721.367C378.004 741.83 403.913 756.562 432.583 764.341C443.049 767.18 452.094 767.77 462.287 769.589C462.107 770.629 460.479 770.51 459.241 770.93C453.248 771.387 443.129 769.862 437.025 768.807C402.545 762.808 370.776 746.255 346.105 721.432C327.113 702.271 312.86 677.582 305.836 651.494C298.868 625.617 299.86 601.744 299.819 575.229L299.861 512.481L299.676 373.367Z"/><path fill="#2F4F3E" d="M179.674 853.158C197.541 852.95 232.99 848.251 224.877 881.146C223.607 886.295 217.61 889.959 212.979 892.111L227.34 911.487L221.124 911.796L220.027 911.63C217.699 909.575 208.926 896.671 206.747 893.572C200.141 893.711 193.144 893.599 186.506 893.603L186.51 911.529L179.552 911.535C179.463 893.522 178.925 870.984 179.674 853.158Z"/><path fill="white" d="M186.493 858.882C195.234 858.712 207.413 857.524 214.693 862.664C221.514 867.481 220.23 877.852 215.662 883.799C208.611 889.703 196.195 888.009 186.477 888.168L186.493 858.882Z"/><path fill="#C8A96A" d="M299.676 373.367C299.667 373.207 299.658 373.048 299.649 372.888C300.1 342.485 298.657 311.925 300.193 281.563C304.25 201.422 372.67 134.85 452.966 131.962C456.303 132.263 458.943 131.454 460.969 132.845C412.695 138.419 373.368 156.521 342.605 195.362C319.963 223.557 306.738 258.145 304.792 294.252C304.076 308.126 305.087 323.031 304.469 336.678C303.376 333.215 303.85 327.539 303.336 323.439L302.716 323.144C298.33 330.457 301.499 371.172 299.676 373.367Z"/><path fill="#A2845A" d="M553.491 132.11C599.867 130.154 638.115 143.323 673.223 174.509C702.969 200.931 723.11 244.189 724.539 284.229C724.564 284.815 724.576 285.401 724.576 285.988C724.054 301.127 724.699 316.873 724.364 332.07C724.242 337.599 724.557 345 724.085 350.377C723.945 337.757 724.546 321.778 723.913 309.685C723.47 311.476 723.638 311.726 722.218 312.673L720.688 312.364C719.785 319.985 721.698 353.717 719.997 357.606C719.268 336.742 720.853 313.655 719.7 292.88C717.369 253.684 701.823 216.436 675.599 187.212C646.98 155.911 604.288 134.804 561.782 132.94C560.351 133.005 548.639 133.197 548.381 132.342C548.943 131.73 552.703 132.004 553.491 132.11Z"/><path fill="#DAC6B3" d="M561.782 132.94C560.351 133.005 548.639 133.197 548.381 132.342C548.943 131.73 552.703 132.004 553.491 132.11C557.096 132.429 558.182 132.092 561.782 132.94Z"/><path fill="#2F4F3E" d="M676.867 853.245L683.608 853.325C693.401 871.746 701.352 892.685 711.314 911.417C708.784 911.632 706.141 911.672 703.595 911.756C701.175 906.463 699.148 901.365 696.39 896.198L683.375 896.31L664.037 896.465C661.857 901.511 659.518 906.487 657.025 911.386C654.569 911.428 651.795 911.342 649.315 911.316C659.048 895.549 667.586 868.978 676.867 853.245Z"/><path fill="white" d="M680.188 860.337C682.129 862.37 692.23 886.378 694.052 890.797L680.25 890.914L665.942 891.042C669.591 882.588 676.116 868.35 680.188 860.337Z"/><path fill="#2F4F3E" d="M555.702 853.285L562.384 853.049C571.609 872.686 580.793 891.655 589.857 911.494L582.567 911.541C580.323 906.184 578.546 901.533 575.598 896.507L561.755 896.462L542.513 896.42C540.217 901.499 537.99 906.608 535.833 911.747L528.449 911.668C537.979 892.493 546.198 872.261 555.702 853.285Z"/><path fill="white" d="M558.822 860.317C560.265 861.679 571.498 886.924 573.012 890.612L559.375 890.664C554.754 890.682 550.133 890.672 545.512 890.633C548.669 882.1 555.068 868.924 558.822 860.317Z"/><path fill="#2F4F3E" d="M340.609 853.446L347.664 853.378C352.965 866.038 359.662 878.631 365.311 891.186C368.334 897.902 371.863 905.129 375.423 911.535L367.771 911.985C364.98 906.642 363.173 901.443 360.046 896.062L348.375 896.143C341.466 896.223 334.478 896.172 327.562 896.171C325.412 901.601 323.222 906.365 320.768 911.657C318.459 911.666 316.025 911.57 313.705 911.517C322.604 892.741 331.215 871.561 340.609 853.446Z"/><path fill="white" d="M343.823 861.256C346.509 863.014 355.606 885.94 357.65 890.575C353.478 890.65 349.305 890.685 345.132 890.678L330.296 890.698C334.206 881.719 339.069 869.601 343.823 861.256Z"/><path fill="#2F4F3E" d="M851.558 853.209C852.282 853.18 854.78 853.016 855.187 853.619C864.151 866.928 871.975 881.685 880.121 895.5C887.21 885.381 892.819 872.463 899.704 862.025C901.876 858.732 905.321 850.5 910.461 854.184C911.223 858.654 911.005 869.658 911.024 874.65L911.143 911.498L904.516 911.476L904.486 874.375L904.467 865.537L888.853 891.717C887.373 894.211 883.008 902.128 881.366 903.875C881.178 903.852 880.987 903.85 880.803 903.808C876.218 902.74 859.705 872.252 855.867 866.37L855.91 911.426L849.547 911.424L849.463 873.321C849.454 868.78 849.179 857.677 849.8 853.717L851.558 853.209Z"/><path fill="#2F4F3E" d="M272.321 895.414C278.2 886.201 290.474 862.997 297.76 853.52C298.265 852.863 301.111 852.93 302.493 853.451C302.966 855.546 302.685 866.856 302.683 869.968C302.641 883.799 302.68 897.63 302.801 911.461L296.45 911.547L296.431 879.394L296.38 866.404C289.233 877.323 282.512 889.395 275.808 900.623C274.937 902.082 273.993 903.243 272.292 903.592C271.243 903.366 270.434 902.924 269.829 902C262.248 890.44 255.931 877.942 248.044 866.577L247.974 911.534L241.495 911.572L241.442 873.412C241.438 868.909 241.157 857.86 241.737 853.808L242.618 853.216L247.151 853.247C255.755 867.233 263.764 881.454 272.321 895.414Z"/><path fill="#2F4F3E" d="M792.491 853.136C801.255 853.425 810.168 853.062 818.935 853.106C822.778 853.125 828.65 852.751 832.27 853.391C833.15 854.761 833.168 856.929 832.626 858.426C830.835 859.307 803.746 859.047 799.35 859.072C799.147 865.374 799.278 872.301 799.281 878.651C803.506 878.685 827.479 878.182 829.646 879.483C829.895 881.436 829.795 882.024 829.617 884.018C827.905 885.472 804.337 884.585 800.035 884.535L799.648 884.739C798.465 886.479 799.241 902.816 799.319 905.852C805.002 905.886 830.146 905.333 833.924 906.089C834.69 907.656 834.462 909.68 834.442 911.493L792.462 911.696C792.341 892.177 792.351 872.656 792.491 853.136Z"/><path fill="#2F4F3E" d="M425.716 853.13C428.279 852.993 431.337 853.079 433.941 853.084C425.332 861.799 416.844 870.633 408.48 879.583C412.315 884.428 416.286 889.163 420.388 893.784C425.431 899.725 430.512 905.633 435.631 911.507L427.492 911.538C422.962 907.59 407.845 889.369 403.549 884.202C399.517 888.591 395.458 892.855 391.495 897.318L391.508 911.598L384.63 911.638C384.956 892.152 384.984 872.662 384.711 853.175L391.495 853.304C391.469 864.925 391.525 876.547 391.663 888.168C403.147 876.973 413.862 864.256 425.716 853.13Z"/><path fill="#2F4F3E" d="M122.509 853.124C127.977 853.115 159.66 852.7 162.851 853.514C163.725 854.95 163.421 857.103 163.374 858.892L129.169 859.006C128.919 865.345 129.045 872.456 129.033 878.855L159.953 878.876L159.973 884.602C149.987 884.615 140.001 884.572 130.016 884.474C128.583 885.634 129.19 902.977 129.207 906.055C133.29 905.996 161.288 905.732 164.195 906.199L164.701 907.03C164.736 908.487 164.909 909.412 164.255 910.707C161.892 912.474 154.44 911.552 151.135 911.568L122.056 911.751L122.509 853.124Z"/><path fill="#2F4F3E" d="M622.969 852.68C633.416 852.294 639.322 854.823 647.044 861.738L642.684 865.761C641.781 865.016 640.855 864.299 639.907 863.611C629.368 856.121 610.812 857.889 604.752 869.123C593.027 890.864 610.219 910.794 633.476 904.755C637.307 903.282 639.211 901.949 642.411 899.596L646.833 903.395C628.335 919.065 598.439 912.766 594.298 886.768C591.276 867.794 604.756 854.681 622.969 852.68Z"/><path fill="#C8A96A" d="M507.725 105.848C512.864 104.43 518.369 105.886 522.135 109.659C525.902 113.432 527.348 118.939 525.92 124.076C524.493 129.213 520.414 133.185 515.241 134.474C507.38 136.434 499.404 131.708 497.347 123.872C495.29 116.036 499.915 108.003 507.725 105.848Z"/><path fill="#C8A96A" d="M508.977 765.683C516.819 764.161 524.441 769.176 526.146 776.98C527.851 784.784 523.015 792.521 515.253 794.408C510.068 795.668 504.608 794.021 500.985 790.104C497.361 786.187 496.144 780.615 497.804 775.544C499.463 770.474 503.74 766.699 508.977 765.683Z"/><path fill="#2F4F3E" d="M948.76 885.977C953.572 876.814 962.181 862.931 968.325 854.177C969.395 852.653 973.344 852.996 975.372 853.003C971.28 859.038 967.744 865.003 964.061 871.286C952.304 890.749 951.371 887.83 951.71 911.536C949.597 911.619 947.152 911.553 945.009 911.549C945.066 904.856 945.033 898.162 944.913 891.469C943.358 889.506 942.049 887.495 940.776 885.347C934.528 874.806 927.584 864.556 921.37 854.016C922.559 853.19 923.842 853.362 925.528 853.194L926.987 853.147C928.929 853.868 945.562 881.567 948.76 885.977Z"/><path fill="#DAC6B3" d="M452.966 131.962C456.023 131.434 472.812 131.005 475.319 131.881C475.31 131.95 475.3 132.02 475.291 132.09C474.932 132.393 462.133 132.91 460.969 132.845C458.943 131.454 456.303 132.263 452.966 131.962Z"/><path fill="#A2845A" d="M462.287 769.589C465.969 769.473 468.759 770.224 472.783 769.9C473.287 770.308 473.985 770.763 474.537 771.143C469.982 770.8 464.206 771.157 459.241 770.93C460.479 770.51 462.107 770.629 462.287 769.589Z"/><path fill="#595753" d="M552.643 719.492C554.848 720.58 557.687 722.318 559.832 723.58C556.98 722.659 553.885 721.814 551.139 720.887L552.643 719.492Z"/><path fill="#969696" d="M465.001 170.93C464.703 170.854 464.405 170.779 464.108 170.703L461.724 170.152C460.733 169.921 459.755 169.672 458.777 169.391L458.716 169.408L458.445 169.212L458.415 169.23C459.567 168.803 463.609 169.536 464.868 169.766L465.001 170.93Z"/><path fill="#DAC6B3" d="M472.783 769.9C473.473 769.973 475.363 770.021 475.88 770.582C475.965 771.095 474.636 771.127 474.537 771.143C473.985 770.763 473.287 770.308 472.783 769.9Z"/><path fill="#969696" d="M494.853 641.996C494.81 642.596 494.728 644.27 494.232 644.665C493.781 644.462 493.915 642.444 493.909 642.083L494.853 641.996Z"/></svg>
